<?xml version="1.0" encoding="utf-8"?>
<!-- Generator: Adobe Illustrator 21.0.2, SVG Export Plug-In . SVG Version: 6.00 Build 0)  -->
<svg version="1.1" id="_x2014_ŽÓť_x5F_1" xmlns="http://www.w3.org/2000/svg" xmlns:xlink="http://www.w3.org/1999/xlink"
	 x="0px" y="0px" viewBox="0 0 500 500" style="enable-background:new 0 0 500 500;" xml:space="preserve">
<style type="text/css">
	.st0{fill:#FFFFFF;}
</style>
<g>
	<g>
		<path class="st0" d="M388.7,398H109.2c-2.8,0-5-2.3-5-5V149.3c0-2.8,2.3-5,5-5h279.6c2.8,0,5,2.3,5,5V393
			C393.8,395.7,391.5,398,388.7,398z M114.2,387.9h269.5V154.4H114.2V387.9z"/>
	</g>
	<g>
		<path class="st0" d="M427.6,153.1H70.3c-2.8,0-5-2.3-5-5v-45c0-2.8,2.3-5,5-5h357.4c2.8,0,5,2.3,5,5v45
			C432.7,150.8,430.4,153.1,427.6,153.1z M75.3,143h347.3v-34.9H75.3V143z"/>
	</g>
	<g>
		<path class="st0" d="M316.7,398H181.2c-2.8,0-5-2.3-5-5v-98.7c0-2.8,2.3-5,5-5h135.6c2.8,0,5,2.3,5,5V393
			C321.8,395.7,319.5,398,316.7,398z M186.2,387.9h125.5v-88.6H186.2V387.9z"/>
	</g>
	<g>
		<path class="st0" d="M248.9,398c-2.8,0-5-2.3-5-5v-98.7c0-2.8,2.3-5,5-5c2.8,0,5,2.3,5,5V393C254,395.7,251.7,398,248.9,398z"/>
	</g>
	<g>
		<path class="st0" d="M419.2,398H78.7c-2.8,0-5-2.3-5-5s2.3-5,5-5h340.5c2.8,0,5,2.3,5,5S422,398,419.2,398z"/>
	</g>
</g>
</svg>
