<?xml version="1.0" standalone="no"?><!DOCTYPE svg PUBLIC "-//W3C//DTD SVG 1.1//EN" "http://www.w3.org/Graphics/SVG/1.1/DTD/svg11.dtd"><svg xmlns="http://www.w3.org/2000/svg" version="1.1" width="671.101" height="553.334" xmlns:xlink="http://www.w3.org/1999/xlink" xlink="http://www.w3.org/1999/xlink" style="position:relative;overflow:hidden;" viewBox="179.5 96.166 671.101 553.334"><defs><filter id="db1c8bb1-74ec-4cdc-8210-0ec2460568f3" x="-0.5" y="-0.5" width="2" height="2"><feFlood flood-color="#000" flood-opacity="0.6" result="flood"/><feComposite in="flood" in2="SourceAlpha" operator="in" result="mask"/><feGaussianBlur in="mask" stdDeviation="2"/><feOffset dx="0.4458333333333333" dy="0.4458333333333333" result="oEffect0"/><feMerge><feMergeNode in="oEffect0"/><feMergeNode in="SourceGraphic"/></feMerge></filter><filter id="d5356e78-bcaf-4562-a3cb-35f3465318be" x="-0.5" y="-0.5" width="2" height="2"><feFlood flood-color="#000" flood-opacity="0.6" result="flood"/><feComposite in="flood" in2="SourceAlpha" operator="in" result="mask"/><feGaussianBlur in="mask" stdDeviation="2"/><feOffset dx="0.44166666666666665" dy="0.44166666666666665" result="oEffect0"/><feMerge><feMergeNode in="oEffect0"/><feMergeNode in="SourceGraphic"/></feMerge></filter><filter id="8fb1ea71-4731-4c7a-ab9c-82db21369ef1" x="-0.5" y="-0.5" width="2" height="2"><feFlood flood-color="#000" flood-opacity="0.6" result="flood"/><feComposite in="flood" in2="SourceAlpha" operator="in" result="mask"/><feGaussianBlur in="mask" stdDeviation="2"/><feOffset dx="0.2583333333333333" dy="0.2583333333333333" result="oEffect0"/><feMerge><feMergeNode in="oEffect0"/><feMergeNode in="SourceGraphic"/></feMerge></filter><filter id="6b6f5038-9167-4257-8844-6efd727fc07a" x="-0.5" y="-0.5" width="2" height="2"><feFlood flood-color="#000" flood-opacity="0.6" result="flood"/><feComposite in="flood" in2="SourceAlpha" operator="in" result="mask"/><feGaussianBlur in="mask" stdDeviation="2"/><feOffset dx="0.05" dy="0.05" result="oEffect0"/><feMerge><feMergeNode in="oEffect0"/><feMergeNode in="SourceGraphic"/></feMerge></filter></defs><g><g width="441.667" height="401.667" transform="scale(1,1) translate(192.167,108.833)"><g transform="scale(1,1) translate(0,0)" stroke="#7F7F7F" fill="#00805b" fill-opacity="1" stroke-opacity="1"><path d="M0,0 L30.35,4.104 L40.638,13.576 L81.276,45.148 L115.999,48.937 L120.371,47.674 L121.915,41.359 L147.635,45.148 L156.38,58.408 L166.154,69.774 L169.497,87.77 L182.358,103.556 L186.73,105.766 L190.588,104.188 L199.076,89.349 L212.451,89.349 L216.309,91.875 L225.825,104.503 L230.969,120.921 L242.029,139.233 L245.373,150.914 L249.745,161.333 L262.091,168.279 L279.581,173.015 L274.694,183.433 L269.807,203.64 L270.321,234.58 L267.749,243.42 L270.321,253.523 L278.295,260.469 L275.98,267.731 L278.295,275.624 L287.811,288.884 L301.443,316.036 L317.39,322.035 L323.048,328.665 L346.454,322.35 L355.456,316.667 L364.458,318.246 L364.973,321.403 L373.975,316.667 L372.174,312.563 L382.462,303.091 L382.205,293.936 L384.263,287.305 L386.32,266.784 L390.693,262.995 L421.043,251.945 L435.704,252.576 L439.562,255.102 L440.333,263.626 L434.418,272.467 L432.617,283.517 L430.56,315.72 L427.473,326.139 L418.985,316.036 L415.127,319.193 L413.07,325.192 L407.411,328.665 L383.748,330.875 L379.89,334.664 L379.89,340.978 L374.746,340.978 L377.061,347.608 L381.691,352.028 L387.607,360.868 L382.977,366.236 L372.689,367.183 L363.172,388.652 L361.886,399.386 L361.886,400.333 L341.824,378.864 L328.45,370.971 L313.532,369.708 L296.813,381.39 L268.521,373.497 L251.803,363.394 L244.087,362.447 L220.167,350.45 L204.22,334.664 L191.36,333.085 L180.3,327.718 L175.156,318.877 L158.438,306.249 L146.864,284.464 L152.008,279.412 L150.207,274.045 L155.351,267.731 L155.351,260.469 L150.722,255.102 L148.664,240.895 L126.287,205.534 L114.713,190.379 L110.341,177.751 L94.651,165.122 L97.995,153.124 L94.908,145.547 L91.05,145.547 L87.707,138.285 L79.99,127.867 L80.762,117.132 L72.274,113.975 L60.186,89.98 L53.498,69.458 L50.926,50.515 L51.698,41.359 L42.696,30.941 L37.552,31.572 L30.35,23.679 L28.035,30.941 L29.321,49.884 L27.264,57.777 L43.467,92.506 L47.84,102.609 L49.126,113.659 L54.27,121.552 L58.643,132.918 L64.558,145.231 L66.616,156.282 L70.988,167.647 L70.474,174.593 L74.332,182.486 L71.76,186.275 L74.846,195.115 L81.276,196.062 L91.565,217.216 L82.048,226.687 L77.418,211.533 L58.9,186.275 L49.126,179.329 L53.756,172.068 L55.042,161.333 L51.698,149.967 L45.268,143.653 L40.638,135.76 L34.465,135.128 L24.692,123.447 L22.634,116.185 L16.461,107.345 L24.692,110.818 L31.122,106.713 L32.408,97.873 L17.747,71.037 L11.574,65.67 L11.831,53.041 L7.973,50.515 L9.774,41.359 L5.401,34.729 L6.687,29.362 L0,0 z" stroke-width="1.333" stroke-dasharray="none"/></g></g><g width="127.214" height="17.708" transform="scale(1,1) translate(718.304,500)"><g stroke="#000000" opacity="1" stroke-width="0" stroke-dasharray="none" width="127.214" height="17.708" transform="scale(1,1) translate(0,0)" fill="none" stroke-opacity="1"><rect width="127.214" height="17.708"/></g><g width="127.2135238647461" height="17.708332061767578" transform="scale(1,1) translate(0,0)"><text width="127.2135238647461" height="17.708332061767578" transform="scale(1,1) translate(0,0)" xml:space="preserve"><tspan xml:space="preserve" text-rendering="optimizeSpeed" font-size="16.666666666666668" font-weight="bold" font-style="normal" fill="#333333" opacity="1" x="0" text-anchor="start" y="14.583" textLength="127.2135238647461" style="font-family: Arial, Helvetica Neue, Helvetica, sans-serif;">Central America</tspan></text></g></g><g width="45" height="45.167" transform="scale(1,1) translate(763.333,595.167)"><g transform="scale(1,1) translate(0,0)" stroke="#7F7F7F" fill="#918f91" fill-opacity="1" stroke-opacity="1"><path d="M33.943,44.167 L33.943,44.167 L29.669,42.612 L24.64,30.481 L28.16,23.95 L23.131,24.261 L18.857,16.174 L11.314,11.819 L6.789,12.441 L5.531,14.619 L5.531,14.619 L0,7.776 L0,7.776 L3.771,0.622 L11.817,0 L25.646,3.11 L39.726,16.174 L39.726,15.552 L44,27.993 L40.731,34.214 L36.96,36.702 L33.943,44.167 z" stroke-width="1" stroke-dasharray="none"/></g></g><g width="9.333" height="10" transform="scale(1,1) translate(760.667,599.667)"><g transform="scale(1,1) translate(0,0)" stroke="#7F7F7F" fill="url(#3dc6561e-36a6-48c9-8df8-ddaa4c13b4ef)" stroke-opacity="1" filter="url(#8fb1ea71-4731-4c7a-ab9c-82db21369ef1)"><linearGradient id="3dc6561e-36a6-48c9-8df8-ddaa4c13b4ef" x1="4.166666666666666" y1="0" x2="4.166666666666666" y2="9" gradientUnits="userSpaceOnUse"><stop offset="0%" style="stop-color:#92B0CF;stop-opacity:1;"/><stop offset="100%" style="stop-color:#8CA8CD;stop-opacity:1;"/></linearGradient><path d="M0,0.844 L0,0.844 L6.757,9 L7.207,9 L8.333,6.188 L8.333,6.188 L3.378,0 L3.378,0 L0,0.844 z" stroke-width="1" stroke-dasharray="none"/></g></g><g width="55.333" height="47.333" transform="scale(1,1) translate(713.167,597.667)"><g transform="scale(1,1) translate(0,0)" stroke="#7F7F7F" fill="#918f91" fill-opacity="1" stroke-opacity="1"><path d="M5.812,0 L5.054,0 L0.758,3.089 L0.758,9.267 L3.285,14.518 L3.285,21.313 L0,26.873 L0,26.873 L4.549,25.947 L12.636,27.491 L21.481,29.962 L25.271,36.14 L34.116,34.596 L36.138,46.333 L42.456,43.862 L50.037,38.302 L42.961,32.124 L41.192,25.329 L52.564,16.062 L54.333,12.047 L53.828,12.047 L46.247,3.089 L46.247,3.089 L25.271,15.444 L19.712,11.429 L13.394,12.047 L9.603,3.707 L5.812,0 z" stroke-width="1" stroke-dasharray="none"/></g></g><g width="54.667" height="53.667" transform="scale(1,1) translate(664.333,571.167)"><g transform="scale(1,1) translate(0,0)" stroke="#7F7F7F" fill="#918f91" fill-opacity="1" stroke-opacity="1"><path d="M0.756,2.169 L0,2.169 L3.275,0 L13.354,3.098 L20.156,0.929 L29.479,4.027 L34.014,1.549 L34.518,0.929 L43.588,19.208 L53.667,25.714 L52.911,25.714 L48.628,28.812 L48.628,35.008 L51.147,40.275 L51.147,47.09 L47.872,52.667 L47.872,52.667 L44.596,51.118 L36.534,50.188 L37.038,40.275 L30.991,34.078 L21.416,28.502 L16.881,22.306 L11.842,28.812 L9.322,25.714 L3.779,24.784 L0,16.42 L0.756,2.169 z" stroke-width="1" stroke-dasharray="none"/></g></g><g width="69.5" height="87.333" transform="scale(1,1) translate(631.5,487.833)"><g transform="scale(1,1) translate(0,0)" stroke="#7F7F7F" fill="#918f91" fill-opacity="1" stroke-opacity="1"><path d="M4.313,46.92 L4.313,46.92 L7.611,46.92 L11.163,42.541 L13.193,35.972 L20.804,28.152 L30.952,25.024 L39.07,17.204 L41.607,9.384 L51.248,9.384 L66.47,0 L66.978,0 L68.5,15.64 L64.694,24.399 L66.978,46.295 L64.694,58.181 L65.963,68.816 L63.426,77.575 L66.978,83.205 L66.47,83.831 L61.904,86.333 L52.517,83.205 L45.667,85.395 L35.519,82.267 L32.22,84.457 L32.981,84.457 L5.581,56.304 L0,48.484 L4.313,46.92 z" stroke-width="1" stroke-dasharray="none"/></g></g><g width="37.5" height="25.333" transform="scale(1,1) translate(591.5,509.333)"><g transform="scale(1,1) translate(0,0)" stroke="#7F7F7F" fill="#918f91" fill-opacity="1" stroke-opacity="1"><path d="M8.69,0 L13.656,1.521 L25.327,10.646 L29.796,8.213 L34.762,10.646 L36.5,18.25 L36.003,18.25 L35.259,23.421 L19.616,24.333 L11.67,20.379 L4.966,20.683 L0,14.6 L0,14.6 L2.235,9.733 L7.201,5.475 L8.69,0 z" stroke-width="1" stroke-dasharray="none"/></g></g><g width="99.167" height="62.5" transform="scale(1,1) translate(600.333,472.667)"><g transform="scale(1,1) translate(0,0)" stroke="#7F7F7F" fill="#918f91" fill-opacity="1" stroke-opacity="1"><path d="M97.655,14.673 L98.167,14.673 L88.708,9.99 L81.039,1.561 L69.535,0 L61.354,2.185 L52.918,1.561 L37.579,7.805 L28.632,5.307 L19.173,11.551 L16.361,7.805 L15.85,7.805 L13.805,14.048 L3.068,25.599 L3.579,31.218 L0,35.901 L5.113,37.462 L17.128,46.827 L21.73,44.33 L26.842,46.827 L28.632,54.632 L28.121,54.632 L35.023,61.5 L35.023,61.5 L38.346,61.5 L41.925,57.129 L43.97,50.574 L51.64,42.769 L61.865,39.647 L70.046,31.843 L72.602,24.038 L82.317,24.038 L97.655,14.673 z" stroke-width="1" stroke-dasharray="none"/></g></g><g width="61.167" height="85.667" transform="scale(1,1) translate(555.167,438.833)"><g transform="scale(1,1) translate(0,0)" stroke="#7F7F7F" fill="#918f91" fill-opacity="1" stroke-opacity="1"><path d="M52.043,38.884 L60.167,41.393 L58.136,47.664 L47.473,59.267 L47.981,64.911 L44.427,69.615 L42.904,75.259 L37.826,79.649 L35.541,84.667 L35.541,84.667 L28.433,81.531 L20.309,82.785 L12.44,79.649 L4.316,75.259 L0,71.183 L0,70.242 L1.269,59.58 L10.662,38.257 L20.817,37.316 L25.387,31.985 L19.548,23.205 L14.978,18.815 L12.693,12.23 L17.771,12.23 L17.771,5.958 L21.579,2.195 L44.935,0 L45.696,33.553 L47.981,38.884 L52.043,38.884 z" stroke-width="1" stroke-dasharray="none"/></g></g><g width="15.833" height="52.167" transform="scale(1,1) translate(601,426)"><g transform="scale(1,1) translate(0,0)" stroke="#7F7F7F" fill="#918f91" fill-opacity="1" stroke-opacity="1"><path d="M10.766,0 L10.766,0 L14.833,28.703 L11.962,42.743 L4.785,49.919 L6.699,51.167 L6.699,51.167 L2.871,51.167 L0.718,45.863 L0,12.48 L5.263,9.048 L7.177,3.12 L10.766,0 z" stroke-width="1" stroke-dasharray="none"/></g></g><g width="51.333" height="17.833" transform="scale(1,1) translate(649.667,444)"><g stroke="#7F7F7F" opacity="1" stroke-width="0" stroke-dasharray="none" width="51.333" height="17.833" transform="scale(1,1) translate(0,0)" fill="none" stroke-opacity="1" filter="url(#db1c8bb1-74ec-4cdc-8210-0ec2460568f3)"><rect width="51.333" height="17.833"/></g><g width="51.33333333333333" height="17.833333333333332" transform="scale(1,1) translate(0,0)"><text width="51.33333333333333" height="15.624999046325684" transform="scale(1,1) translate(0,0)" xml:space="preserve"><tspan xml:space="preserve" text-rendering="optimizeSpeed" font-size="13.88888888888889" font-weight="bold" font-style="normal" fill="#333333" opacity="1" x="0" text-anchor="start" y="12.5" textLength="40.13069152832031" style="font-family: Arial, Helvetica Neue, Helvetica, sans-serif;">Belize</tspan></text></g></g><g width="37" height="0" transform="scale(1,1) translate(608.333,450.833)"><g transform="scale(1,1) translate(0,0)" fill="#545454" stroke="#545454" stroke-opacity="1" filter="url(#6b6f5038-9167-4257-8844-6efd727fc07a)"><path d="M0,0 L37,0" fill="none" stroke-width="1" stroke-dasharray="none"/><g><g stroke-dasharray="none"><path d="M-1,-1L1,-1L1,1L-1,1z" stroke-width="0" fill="none"/></g></g></g></g><g width="89.667" height="17.833" transform="scale(1,1) translate(617.5,583)"><g stroke="#7F7F7F" opacity="1" stroke-width="0" stroke-dasharray="none" width="89.667" height="17.833" transform="scale(1,1) translate(0,0)" fill="none" stroke-opacity="1" filter="url(#db1c8bb1-74ec-4cdc-8210-0ec2460568f3)"><rect width="89.667" height="17.833"/></g><g width="89.66666666666666" height="17.833333333333332" transform="scale(1,1) translate(0,0)"><text width="89.66666666666666" height="15.624999046325684" transform="scale(1,1) translate(0,0)" xml:space="preserve"><tspan xml:space="preserve" text-rendering="optimizeSpeed" font-size="13.88888888888889" font-weight="bold" font-style="normal" fill="#333333" opacity="1" x="0" text-anchor="start" y="12.5" textLength="71.76607513427734" style="font-family: Arial, Helvetica Neue, Helvetica, sans-serif;">Costa Rica</tspan></text></g></g><g width="96.833" height="17.833" transform="scale(1,1) translate(487.833,583)"><g stroke="#7F7F7F" opacity="1" stroke-width="0" stroke-dasharray="none" width="96.833" height="17.833" transform="scale(1,1) translate(0,0)" fill="none" stroke-opacity="1" filter="url(#db1c8bb1-74ec-4cdc-8210-0ec2460568f3)"><rect width="96.833" height="17.833"/></g><g width="96.83333333333333" height="17.833333333333332" transform="scale(1,1) translate(0,0)"><text width="96.83333333333333" height="15.624999046325684" transform="scale(1,1) translate(0,0)" xml:space="preserve"><tspan xml:space="preserve" text-rendering="optimizeSpeed" font-size="13.88888888888889" font-weight="bold" font-style="normal" fill="#333333" opacity="1" x="0" text-anchor="start" y="12.5" textLength="74.86450958251953" style="font-family: Arial, Helvetica Neue, Helvetica, sans-serif;">El Salvador</tspan></text></g></g><g width="37.167" height="55.667" transform="scale(1,1) translate(571.167,525)"><g transform="scale(1,1) translate(0,0)" fill="#545454" stroke="#545454" stroke-opacity="1" filter="url(#6b6f5038-9167-4257-8844-6efd727fc07a)"><path d="M0,55.667 L37.167,0" fill="none" stroke-width="1" stroke-dasharray="none"/><g><g stroke-dasharray="none"><path d="M-1,54.667L1,54.667L1,56.667L-1,56.667z" stroke-width="0" fill="none"/></g></g></g></g><g width="92.833" height="17.833" transform="scale(1,1) translate(523.833,507.167)"><g stroke="#7F7F7F" opacity="1" stroke-width="0" stroke-dasharray="none" width="92.833" height="17.833" transform="scale(1,1) translate(0,0)" fill="none" stroke-opacity="1" filter="url(#db1c8bb1-74ec-4cdc-8210-0ec2460568f3)"><rect width="92.833" height="17.833"/></g><g width="92.83333333333333" height="17.833333333333332" transform="scale(1,1) translate(0,0)"><text width="92.83333333333333" height="15.624999046325684" transform="scale(1,1) translate(0,0)" xml:space="preserve"><tspan xml:space="preserve" text-rendering="optimizeSpeed" font-size="13.88888888888889" font-weight="bold" font-style="normal" fill="#333333" opacity="1" x="0" text-anchor="start" y="12.5" textLength="70.99993896484375" style="font-family: Arial, Helvetica Neue, Helvetica, sans-serif;">Guatemala</tspan></text></g></g><g width="83" height="17.667" transform="scale(1,1) translate(618,481.167)"><g stroke="#7F7F7F" opacity="1" stroke-width="0" stroke-dasharray="none" width="83" height="17.667" transform="scale(1,1) translate(0,0)" fill="none" stroke-opacity="1" filter="url(#d5356e78-bcaf-4562-a3cb-35f3465318be)"><rect width="83" height="17.667"/></g><g width="83" height="17.666666666666664" transform="scale(1,1) translate(0,0)"><text width="83" height="15.624999046325684" transform="scale(1,1) translate(0,0)" xml:space="preserve"><tspan xml:space="preserve" text-rendering="optimizeSpeed" font-size="13.88888888888889" font-weight="bold" font-style="normal" fill="#333333" opacity="1" x="0" text-anchor="start" y="12.5" textLength="64.80306243896484" style="font-family: Arial, Helvetica Neue, Helvetica, sans-serif;">Honduras</tspan></text></g></g><g width="87.333" height="17.833" transform="scale(1,1) translate(645.333,536.667)"><g stroke="#7F7F7F" opacity="1" stroke-width="0" stroke-dasharray="none" width="87.333" height="17.833" transform="scale(1,1) translate(0,0)" fill="none" stroke-opacity="1" filter="url(#db1c8bb1-74ec-4cdc-8210-0ec2460568f3)"><rect width="87.333" height="17.833"/></g><g width="87.33333333333333" height="17.833333333333332" transform="scale(1,1) translate(0,0)"><text width="87.33333333333333" height="15.624999046325684" transform="scale(1,1) translate(0,0)" xml:space="preserve"><tspan xml:space="preserve" text-rendering="optimizeSpeed" font-size="13.88888888888889" font-weight="bold" font-style="normal" fill="#333333" opacity="1" x="0" text-anchor="start" y="12.5" textLength="67.14213562011719" style="font-family: Arial, Helvetica Neue, Helvetica, sans-serif;">Nicaragua</tspan></text></g></g><g width="69" height="17.667" transform="scale(1,1) translate(738,592.333)"><g stroke="#7F7F7F" opacity="1" stroke-width="0" stroke-dasharray="none" width="69" height="17.667" transform="scale(1,1) translate(0,0)" fill="none" stroke-opacity="1" filter="url(#d5356e78-bcaf-4562-a3cb-35f3465318be)"><rect width="69" height="17.667"/></g><g width="69" height="17.666666666666664" transform="scale(1,1) translate(0,0)"><text width="69" height="15.624999046325684" transform="scale(1,1) translate(0,0)" xml:space="preserve"><tspan xml:space="preserve" text-rendering="optimizeSpeed" font-size="13.88888888888889" font-weight="bold" font-style="normal" fill="#333333" opacity="1" x="0" text-anchor="start" y="12.5" textLength="53.25673294067383" style="font-family: Arial, Helvetica Neue, Helvetica, sans-serif;">Panama</tspan></text></g></g><g width="56.502" height="17.833" transform="scale(1,1) translate(365,312.5)"><g stroke="#7F7F7F" opacity="1" stroke-width="0" stroke-dasharray="none" width="56.502" height="17.833" transform="scale(1,1) translate(0,0)" fill="none" stroke-opacity="1" filter="url(#db1c8bb1-74ec-4cdc-8210-0ec2460568f3)"><rect width="56.502" height="17.833"/></g><g width="56.502281188964844" height="17.833333333333332" transform="scale(1,1) translate(0,0)"><text width="56.502281188964844" height="17.708332061767578" transform="scale(1,1) translate(0,0)" xml:space="preserve"><tspan xml:space="preserve" text-rendering="optimizeSpeed" font-size="16.666666666666668" font-weight="bold" font-style="normal" fill="#ffffff" opacity="1" x="0" text-anchor="start" y="14.583" textLength="56.502281188964844" style="font-family: Arial, Helvetica Neue, Helvetica, sans-serif;">Mexico</tspan></text></g></g></g></svg>