<?xml version="1.0" encoding="utf-8"?>
<!-- Generator: Adobe Illustrator 21.0.2, SVG Export Plug-In . SVG Version: 6.00 Build 0)  -->
<svg version="1.1" id="Ebene_1" xmlns="http://www.w3.org/2000/svg" xmlns:xlink="http://www.w3.org/1999/xlink" x="0px" y="0px"
	 viewBox="0 0 231.3 64.7" style="enable-background:new 0 0 231.3 64.7;" xml:space="preserve">
<style type="text/css">
	.GrÃ_x00BC_n_x0020_bogenfÃ_x00B6_rmig{fill:url(#SVGID_1_);stroke:#FFFFFF;stroke-width:0.25;stroke-miterlimit:1;}
	.st0{fill:#004528;}
	.st1{fill:#575756;}
</style>
<linearGradient id="SVGID_1_" gradientUnits="userSpaceOnUse" x1="-346" y1="538.0962" x2="-345.2929" y2="537.3891">
	<stop  offset="0" style="stop-color:#1DA238"/>
	<stop  offset="0.9831" style="stop-color:#24391D"/>
</linearGradient>
<g>
	<path class="st0" d="M9.1,33c2.4,1.3,5.9,2.2,9.6,2.2c2.7,0,5.2-0.9,5.2-3c0-1.7-1.7-2.7-5.1-4.3c-3.8-1.8-8.2-4.5-8.2-9.4
		c0-7.5,7.3-11.9,16.4-11.9c5.2,0,7.9,0.9,9.8,1.7l-3.1,7.4c-1.3-0.6-4.2-1.6-7.5-1.5c-3.5,0-5.2,1.3-5.2,2.8c0,1.7,2.6,2.8,5.6,4.3
		c4.7,2.2,7.9,5.1,7.9,9.2c0,8.6-8.1,12.3-16.7,12.3c-6.1-0.1-10-1.4-11.9-2.6L9.1,33z"/>
	<path class="st0" d="M72.2,14.7l-2.1,10h9.5l2.1-10h7.6l-5.6,26.7h-7.5l2.2-10.6h-9.5l-2.2,10.6H59l5.6-26.7H72.2z"/>
	<path class="st0" d="M92.5,14.7h7.5l-4.4,20.9h11.1l-1.2,5.7H86.9L92.5,14.7z"/>
	<path class="st0" d="M128,30.6h-10.4l-1.1,5h11.7l-1.2,5.7h-19.2l5.6-26.7H132l-1.2,5.7h-11l-1,4.5h10.5L128,30.6z"/>
	<path class="st0" d="M140.5,20.4h-7.4l1.2-5.7h22.5l-1.2,5.7h-7.6l-4.4,21h-7.5L140.5,20.4z"/>
	<path class="st0" d="M165.4,20.4h-7.4l1.2-5.7h22.5l-1.2,5.7h-7.6l-4.4,21H161L165.4,20.4z"/>
	<path class="st0" d="M198.5,30.6h-10.4l-1.1,5h11.7l-1.2,5.7h-19.2l5.6-26.7h18.6l-1.2,5.7h-11l-1,4.5h10.5L198.5,30.6z"/>
	<path class="st0" d="M224.2,41.3h-7l-0.2-0.5c-0.4-1.4-1.3-3.6-2.5-6.6c-0.6-1.5-1.3-2.5-1.9-3c-0.2-0.1-0.7-0.4-2.1-0.4h-1.4
		L207,41.3h-6.5l5.4-26.6h11.4c2,0,3.5,0.2,4.6,0.6c1.2,0.5,2.2,1.3,2.9,2.5c0.7,1.2,1.1,2.6,1.1,4.2c0,2.3-0.7,4.3-2,5.8
		c-1.1,1.3-2.7,2.1-4.7,2.6c0.3,0.4,0.7,0.9,1,1.5c1.1,2,2.4,4.8,3.8,8.4L224.2,41.3z M210.1,25.6h1.7c3.2,0,4.5-0.2,5.1-0.4
		c0.7-0.3,1.3-0.7,1.7-1.3c0.4-0.6,0.6-1.2,0.6-1.8c0-0.7-0.2-1.1-0.7-1.4c-0.1-0.1-0.6-0.3-2.5-0.3h-4.9L210.1,25.6z"/>
	<path class="st0" d="M57,35.4c-1.3,0.4-3,0.6-4.8,0.6c-4.6,0-7.4-2.4-7.4-6.4c0-3.6,1.6-6.3,3.9-7.9c1.6-1.1,3.7-1.7,6-1.7
		c2.5,0,4.4,0.5,5.2,0.8l1.4-5.7c-1.2-0.4-3.3-0.8-6-0.8c-4.1,0-7.7,0.8-10.7,2.5c-4.7,2.6-8,7.2-8,13.6c0,7.1,5.5,11.4,13.6,11.4
		c2.2,0,4-0.2,5.5-0.5L57,35.4z"/>
</g>
<g>
	<g>
		<path class="st1" d="M107,54.5c0.5,0.3,1.2,0.5,1.9,0.5c0.8,0,1.6-0.4,1.6-1.3c0-0.6-0.4-0.9-1.2-1.4c-1-0.5-1.7-1.2-1.7-2.2
			c0-1.6,1.4-2.7,3.2-2.7c1,0,1.6,0.2,1.9,0.4l-0.5,1.2c-0.3-0.2-0.9-0.4-1.6-0.4c-0.9,0-1.5,0.5-1.5,1.1c0,0.6,0.5,0.9,1.3,1.4
			c1,0.5,1.7,1.2,1.7,2.3c0,1.7-1.4,2.8-3.3,2.8c-1,0-1.9-0.3-2.3-0.6L107,54.5z"/>
		<path class="st1" d="M119.4,52.5c0,2.1-1.5,3.9-3.6,3.9c-1.6,0-2.5-1.1-2.5-2.6c0-2.1,1.5-3.9,3.6-3.9
			C118.5,49.9,119.4,51.1,119.4,52.5z M114.8,53.8c0,0.9,0.5,1.5,1.2,1.5c1.1,0,1.8-1.5,1.8-2.8c0-0.6-0.3-1.4-1.2-1.4
			C115.5,51,114.8,52.6,114.8,53.8z"/>
		<path class="st1" d="M120.1,56.2l1.7-9h1.5l-1.7,9H120.1z"/>
		<path class="st1" d="M127.4,56.2c0-0.4,0.1-0.9,0.1-1.4h0c-0.6,1.1-1.4,1.5-2.2,1.5c-1.1,0-1.8-0.9-1.8-2.1c0-2.1,1.5-4.4,4.4-4.4
			c0.7,0,1.4,0.1,1.9,0.3l-0.6,3.2c-0.2,0.9-0.3,2.1-0.3,2.8H127.4z M128,51.1c-0.2,0-0.3-0.1-0.6-0.1c-1.4,0-2.4,1.5-2.4,3
			c0,0.6,0.2,1.2,0.9,1.2c0.7,0,1.5-0.9,1.8-2.4L128,51.1z"/>
		<path class="st1" d="M130.3,56.2l0.7-3.8c0.2-0.9,0.2-1.8,0.3-2.4h1.3c0,0.4-0.1,0.9-0.1,1.3h0c0.4-0.8,1.1-1.5,1.9-1.5
			c0.1,0,0.2,0,0.3,0l-0.3,1.5c-0.1,0-0.2,0-0.3,0c-1.1,0-1.7,1.1-2,2.4l-0.5,2.5H130.3z"/>
		<path class="st1" d="M144.4,56.2l0.6-4c0.1-0.9,0.3-2.1,0.5-3.1h0c-0.4,1-1,2.1-1.4,3l-2.1,4.1h-1.1l-0.4-4
			c-0.1-1-0.2-2.1-0.2-3.1h0c-0.2,1-0.5,2.3-0.7,3.1l-1,4H137l2.2-8.6h2l0.5,4c0.1,0.8,0.2,1.7,0.2,2.5h0.1c0.3-0.8,0.7-1.7,1.1-2.5
			l2.1-4h2l-1.1,8.6H144.4z"/>
		<path class="st1" d="M153.7,52.5c0,2.1-1.5,3.9-3.6,3.9c-1.6,0-2.5-1.1-2.5-2.6c0-2.1,1.5-3.9,3.6-3.9
			C152.9,49.9,153.7,51.1,153.7,52.5z M149.2,53.8c0,0.9,0.5,1.5,1.2,1.5c1.1,0,1.8-1.5,1.8-2.8c0-0.6-0.3-1.4-1.2-1.4
			C149.8,51,149.2,52.6,149.2,53.8z"/>
		<path class="st1" d="M160.9,50l-0.8,4.3c-0.1,0.7-0.2,1.4-0.3,1.9h-1.3l0.1-1.1h0c-0.6,0.8-1.4,1.2-2.2,1.2
			c-0.9,0-1.6-0.5-1.6-1.8c0-0.3,0-0.7,0.1-1.1l0.7-3.5h1.5l-0.6,3.4c-0.1,0.3-0.1,0.6-0.1,0.9c0,0.5,0.2,0.9,0.8,0.9
			c0.7,0,1.5-0.8,1.7-2.1l0.6-3H160.9z"/>
		<path class="st1" d="M161.5,56.2l0.8-4.3c0.2-0.7,0.2-1.4,0.3-1.9h1.3l-0.1,1.1h0c0.6-0.8,1.4-1.3,2.2-1.3c0.9,0,1.6,0.5,1.6,1.7
			c0,0.3-0.1,0.7-0.1,1l-0.7,3.6h-1.5l0.7-3.5c0-0.2,0.1-0.5,0.1-0.7c0-0.5-0.2-0.9-0.8-0.9c-0.7,0-1.5,0.8-1.8,2.3l-0.5,2.9H161.5z
			"/>
		<path class="st1" d="M171.7,48.3l-0.3,1.7h1.4l-0.2,1.1h-1.4l-0.5,2.5c-0.1,0.3-0.1,0.6-0.1,0.9c0,0.3,0.2,0.5,0.5,0.5
			c0.2,0,0.4,0,0.5,0l-0.1,1.2c-0.2,0.1-0.6,0.1-1,0.1c-1,0-1.5-0.6-1.5-1.3c0-0.4,0-0.7,0.1-1.2l0.5-2.8h-0.8l0.2-1.1h0.8l0.3-1.3
			L171.7,48.3z"/>
		<path class="st1" d="M172.8,56.2L174,50h1.5l-1.2,6.2H172.8z M174.2,48.3c0-0.5,0.4-0.9,0.9-0.9c0.5,0,0.8,0.3,0.8,0.8
			c0,0.5-0.4,0.9-0.9,0.9C174.5,49.1,174.2,48.8,174.2,48.3z"/>
		<path class="st1" d="M176.1,56.2l0.8-4.3c0.2-0.7,0.2-1.4,0.3-1.9h1.3l-0.1,1.1h0c0.6-0.8,1.4-1.3,2.2-1.3c0.9,0,1.6,0.5,1.6,1.7
			c0,0.3-0.1,0.7-0.1,1l-0.7,3.6h-1.5l0.7-3.5c0-0.2,0.1-0.5,0.1-0.7c0-0.5-0.2-0.9-0.8-0.9c-0.7,0-1.5,0.8-1.8,2.3l-0.5,2.9H176.1z
			"/>
		<path class="st1" d="M183.4,57.3c0.4,0.2,1.1,0.4,1.6,0.4c1,0,1.7-0.5,2-1.9l0.1-0.7h0c-0.5,0.7-1.2,1.1-1.9,1.1
			c-1.2,0-1.9-1-1.9-2.2c0-2.1,1.5-4.1,4.1-4.1c0.8,0,1.6,0.2,2.2,0.4l-0.9,5.1c-0.2,1.2-0.6,2.2-1.3,2.8c-0.6,0.5-1.5,0.7-2.3,0.7
			c-0.8,0-1.5-0.2-1.9-0.4L183.4,57.3z M187.9,51.2c-0.2-0.1-0.5-0.2-0.8-0.2c-1.3,0-2.2,1.4-2.2,2.7c0,0.6,0.3,1.3,1,1.3
			c0.7,0,1.5-0.9,1.7-2L187.9,51.2z"/>
		<path class="st1" d="M199.3,55.8c-0.6,0.2-1.6,0.5-2.6,0.5c-1.2,0-2.2-0.3-2.8-1c-0.7-0.6-1-1.6-1-2.6c0-1.5,0.6-3,1.7-3.9
			c0.9-0.8,2.2-1.3,3.7-1.3c1.1,0,1.9,0.2,2.2,0.4l-0.5,1.2c-0.4-0.2-1-0.4-1.8-0.4c-0.9,0-1.8,0.3-2.4,0.8
			c-0.8,0.7-1.3,1.8-1.3,2.9c0,1.5,0.8,2.4,2.4,2.4c0.5,0,0.8-0.1,1.1-0.2l0.4-2.2h-1.5l0.2-1.2h3L199.3,55.8z"/>
		<path class="st1" d="M200.9,56.2l0.7-3.8c0.2-0.9,0.2-1.8,0.3-2.4h1.3c0,0.4-0.1,0.9-0.1,1.3h0c0.4-0.8,1.1-1.5,1.9-1.5
			c0.1,0,0.2,0,0.3,0l-0.3,1.5c-0.1,0-0.2,0-0.3,0c-1.1,0-1.7,1.1-2,2.4l-0.5,2.5H200.9z"/>
		<path class="st1" d="M211.6,52.5c0,2.1-1.5,3.9-3.6,3.9c-1.6,0-2.5-1.1-2.5-2.6c0-2.1,1.5-3.9,3.6-3.9
			C210.7,49.9,211.6,51.1,211.6,52.5z M207,53.8c0,0.9,0.5,1.5,1.2,1.5c1.1,0,1.8-1.5,1.8-2.8c0-0.6-0.3-1.4-1.2-1.4
			C207.6,51,207,52.6,207,53.8z"/>
		<path class="st1" d="M218.7,50l-0.8,4.3c-0.1,0.7-0.2,1.4-0.3,1.9h-1.3l0.1-1.1h0c-0.6,0.8-1.4,1.2-2.2,1.2
			c-0.9,0-1.6-0.5-1.6-1.8c0-0.3,0-0.7,0.1-1.1l0.7-3.5h1.5l-0.6,3.4c-0.1,0.3-0.1,0.6-0.1,0.9c0,0.5,0.2,0.9,0.8,0.9
			c0.7,0,1.5-0.8,1.7-2.1l0.6-3H218.7z"/>
		<path class="st1" d="M218.7,58.7l1.2-6.4c0.1-0.7,0.3-1.7,0.4-2.3h1.3l-0.1,1h0c0.5-0.7,1.3-1.2,2.1-1.2c1.3,0,2,1.1,2,2.3
			c0,2.2-1.5,4.2-3.6,4.2c-0.6,0-1-0.1-1.2-0.3h0l-0.5,2.7H218.7z M221,54.9c0.2,0.2,0.6,0.3,1,0.3c1.1,0,2.1-1.5,2.1-2.9
			c0-0.6-0.3-1.2-1-1.2c-0.8,0-1.6,0.9-1.8,2.3L221,54.9z"/>
	</g>
	<g>
		<path class="st1" d="M87.7,48.9h-2.4l0.3-1.3h6.2l-0.3,1.3h-2.4l-1.4,7.3h-1.5L87.7,48.9z"/>
		<path class="st1" d="M91.2,56.2l1.7-9h1.5L93.7,51h0c0.5-0.6,1.2-1.1,2.1-1.1c0.9,0,1.5,0.5,1.5,1.7c0,0.3,0,0.7-0.1,1.1l-0.7,3.6
			h-1.5l0.7-3.5c0-0.2,0.1-0.5,0.1-0.8c0-0.5-0.2-0.8-0.8-0.8c-0.7,0-1.5,0.9-1.8,2.2l-0.6,2.9H91.2z"/>
		<path class="st1" d="M103.1,55.8c-0.6,0.3-1.4,0.5-2.2,0.5c-1.7,0-2.5-1-2.5-2.6c0-1.9,1.4-3.9,3.5-3.9c1.2,0,2,0.7,2,1.7
			c0,1.6-1.7,2.1-4,2c0,0.2,0,0.6,0.2,0.9c0.2,0.4,0.7,0.6,1.3,0.6c0.7,0,1.3-0.2,1.7-0.4L103.1,55.8z M101.7,51
			c-0.9,0-1.5,0.8-1.7,1.6c1.5,0,2.5-0.2,2.5-0.9C102.5,51.2,102.2,51,101.7,51z"/>
	</g>
</g>
</svg>
